<?xml version="1.0" standalone="no"?>
<!DOCTYPE svg PUBLIC "-//W3C//DTD SVG 20010904//EN"
 "http://www.w3.org/TR/2001/REC-SVG-20010904/DTD/svg10.dtd">
<svg version="1.0" xmlns="http://www.w3.org/2000/svg"
 width="400.000000pt" height="400.000000pt" viewBox="0 0 400.000000 400.000000"
 preserveAspectRatio="xMidYMid meet">
<metadata>
Created by potrace 1.11, written by Peter Selinger 2001-2013
</metadata>
<g transform="translate(0.000000,400.000000) scale(0.100000,-0.100000)"
fill="#000000" stroke="none">
<path d="M170 3220 l0 -610 610 0 610 0 0 610 0 610 -610 0 -610 0 0 -610z
m1040 5 l0 -435 -435 0 -435 0 0 435 0 435 435 0 435 0 0 -435z"/>
<path d="M520 3220 l0 -260 260 0 260 0 0 260 0 260 -260 0 -260 0 0 -260z"/>
<path d="M1730 3745 l0 -85 -85 0 -85 0 0 -90 0 -90 85 0 85 0 0 -85 0 -85
-85 0 -85 0 0 -85 0 -85 85 0 85 0 0 85 0 85 90 0 90 0 0 85 0 85 -90 0 -90 0
0 90 0 90 90 0 90 0 0 85 0 85 -90 0 -90 0 0 -85z"/>
<path d="M2260 3745 l0 -85 -90 0 -90 0 0 -90 0 -90 90 0 90 0 0 90 0 90 85 0
85 0 0 85 0 85 -85 0 -85 0 0 -85z"/>
<path d="M2600 3220 l0 -610 610 0 610 0 0 610 0 610 -610 0 -610 0 0 -610z
m1050 5 l0 -435 -435 0 -435 0 0 435 0 435 435 0 435 0 0 -435z"/>
<path d="M2950 3220 l0 -260 260 0 260 0 0 260 0 260 -260 0 -260 0 0 -260z"/>
<path d="M2080 3225 l0 -85 -85 0 -85 0 0 -90 0 -90 -175 0 -175 0 0 -175 0
-175 85 0 85 0 0 90 0 90 90 0 90 0 0 -175 0 -175 -350 0 -350 0 0 -85 0 -85
-85 0 -85 0 0 85 0 85 -435 0 -435 0 0 -85 0 -85 175 0 175 0 0 -175 0 -175
170 0 170 0 0 -90 0 -90 -170 0 -170 0 0 -85 0 -85 170 0 170 0 0 85 0 85 90
0 90 0 0 90 0 90 -90 0 -90 0 0 85 0 85 175 0 175 0 0 -85 0 -85 90 0 90 0 0
-90 0 -90 -90 0 -90 0 0 -85 0 -85 175 0 175 0 0 -175 0 -175 85 0 85 0 0 90
0 90 90 0 90 0 0 -90 0 -90 85 0 85 0 0 -85 0 -85 90 0 90 0 0 -90 0 -90 85 0
85 0 0 -85 0 -85 -175 0 -175 0 0 -85 0 -85 -85 0 -85 0 0 -90 0 -90 -90 0
-90 0 0 260 0 260 90 0 90 0 0 90 0 90 -175 0 -175 0 0 -435 0 -435 175 0 175
0 0 85 0 85 175 0 175 0 0 90 0 90 85 0 85 0 0 -90 0 -90 85 0 85 0 0 -85 0
-85 265 0 265 0 0 85 0 85 170 0 170 0 0 -85 0 -85 90 0 90 0 0 85 0 85 -90 0
-90 0 0 90 0 90 -85 0 -85 0 0 85 0 85 85 0 85 0 0 85 0 85 175 0 175 0 0 175
0 175 -85 0 -85 0 0 90 0 90 85 0 85 0 0 85 0 85 -85 0 -85 0 0 -85 0 -85 -90
0 -90 0 0 85 0 85 -85 0 -85 0 0 -85 0 -85 -85 0 -85 0 0 85 0 85 -90 0 -90 0
0 85 0 85 260 0 260 0 0 90 0 90 90 0 90 0 0 -90 0 -90 85 0 85 0 0 90 0 90
-85 0 -85 0 0 85 0 85 85 0 85 0 0 90 0 90 -85 0 -85 0 0 85 0 85 -90 0 -90 0
0 -85 0 -85 90 0 90 0 0 -90 0 -90 -175 0 -175 0 0 -85 0 -85 -260 0 -260 0 0
-90 0 -90 -90 0 -90 0 0 175 0 175 265 0 265 0 0 90 0 90 85 0 85 0 0 85 0 85
-85 0 -85 0 0 -85 0 -85 -90 0 -90 0 0 85 0 85 -85 0 -85 0 0 -85 0 -85 -90 0
-90 0 0 85 0 85 -85 0 -85 0 0 350 0 350 -85 0 -85 0 0 85 0 85 -90 0 -90 0 0
-85z m180 -350 l0 -265 -90 0 -90 0 0 265 0 265 90 0 90 0 0 -265z m170 -610
l0 -175 -175 0 -175 0 0 90 0 90 -85 0 -85 0 0 -175 0 -175 -90 0 -90 0 0 -90
0 -90 90 0 90 0 0 -85 0 -85 -90 0 -90 0 0 85 0 85 -85 0 -85 0 0 90 0 90 -85
0 -85 0 0 85 0 85 -90 0 -90 0 0 90 0 90 90 0 90 0 0 -90 0 -90 85 0 85 0 0
90 0 90 175 0 175 0 0 85 0 85 260 0 260 0 0 -175z m-1570 -85 l0 -90 -85 0
-85 0 0 90 0 90 85 0 85 0 0 -90z m1570 -350 l0 -90 85 0 85 0 0 -85 0 -85
175 0 175 0 0 -85 0 -85 90 0 90 0 0 -265 0 -265 85 0 85 0 0 90 0 90 85 0 85
0 0 85 0 85 90 0 90 0 0 -85 0 -85 -90 0 -90 0 0 -90 0 -90 -85 0 -85 0 0 -85
0 -85 -85 0 -85 0 0 -85 0 -85 -90 0 -90 0 0 -90 0 -90 -175 0 -175 0 0 90 0
90 -85 0 -85 0 0 85 0 85 350 0 350 0 0 85 0 85 -90 0 -90 0 0 90 0 90 -175 0
-175 0 0 -90 0 -90 -85 0 -85 0 0 90 0 90 85 0 85 0 0 260 0 260 -85 0 -85 0
0 -85 0 -85 -175 0 -175 0 0 85 0 85 90 0 90 0 0 85 0 85 -90 0 -90 0 0 90 0
90 175 0 175 0 0 -90z"/>
<path d="M170 1830 l0 -260 85 0 85 0 0 260 0 260 -85 0 -85 0 0 -260z"/>
<path d="M170 790 l0 -610 610 0 610 0 0 610 0 610 -610 0 -610 0 0 -610z
m1040 -5 l0 -435 -435 0 -435 0 0 435 0 435 435 0 435 0 0 -435z"/>
<path d="M520 790 l0 -260 260 0 260 0 0 260 0 260 -260 0 -260 0 0 -260z"/>
</g>
</svg>
